<mxfile host="Electron" modified="2023-05-16T12:23:05.471Z" agent="Mozilla/5.0 (Macintosh; Intel Mac OS X 10_15_7) AppleWebKit/537.36 (KHTML, like Gecko) draw.io/21.2.8 Chrome/112.0.5615.165 Electron/24.2.0 Safari/537.36" etag="wSQRrAdD-IaGxWa6zZJF" version="21.2.8" type="device">
  <diagram name="Page-1" id="d8nimdB9H4SKHUX3WMWM">
    <mxGraphModel dx="1114" dy="854" grid="1" gridSize="10" guides="1" tooltips="1" connect="1" arrows="1" fold="1" page="1" pageScale="1" pageWidth="827" pageHeight="1169" math="0" shadow="0">
      <root>
        <mxCell id="0" />
        <mxCell id="1" parent="0" />
        <mxCell id="PTT7HxY-eehZ_G498u7Y-9" style="edgeStyle=orthogonalEdgeStyle;rounded=1;orthogonalLoop=1;jettySize=auto;html=1;endArrow=oval;endFill=1;sketch=1;curveFitting=1;jiggle=2;" edge="1" parent="1" source="PTT7HxY-eehZ_G498u7Y-1" target="PTT7HxY-eehZ_G498u7Y-5">
          <mxGeometry relative="1" as="geometry" />
        </mxCell>
        <mxCell id="PTT7HxY-eehZ_G498u7Y-17" style="edgeStyle=none;rounded=1;orthogonalLoop=1;jettySize=auto;html=1;entryX=0.108;entryY=0.204;entryDx=0;entryDy=0;entryPerimeter=0;endArrow=none;endFill=0;sketch=1;curveFitting=1;jiggle=2;" edge="1" parent="1" source="PTT7HxY-eehZ_G498u7Y-2" target="PTT7HxY-eehZ_G498u7Y-1">
          <mxGeometry relative="1" as="geometry" />
        </mxCell>
        <mxCell id="PTT7HxY-eehZ_G498u7Y-2" value="Resource Optimization" style="rounded=1;whiteSpace=wrap;html=1;sketch=1;curveFitting=1;jiggle=2;strokeColor=#0000CC;" vertex="1" parent="1">
          <mxGeometry x="220" y="210" width="120" height="60" as="geometry" />
        </mxCell>
        <mxCell id="PTT7HxY-eehZ_G498u7Y-16" style="edgeStyle=none;rounded=1;orthogonalLoop=1;jettySize=auto;html=1;exitX=1;exitY=0.5;exitDx=0;exitDy=0;entryX=0;entryY=0.622;entryDx=0;entryDy=0;entryPerimeter=0;endArrow=none;endFill=0;sketch=1;curveFitting=1;jiggle=2;" edge="1" parent="1" source="PTT7HxY-eehZ_G498u7Y-3" target="PTT7HxY-eehZ_G498u7Y-1">
          <mxGeometry relative="1" as="geometry" />
        </mxCell>
        <mxCell id="PTT7HxY-eehZ_G498u7Y-3" value="Service Discovery and Load Balancing" style="rounded=1;whiteSpace=wrap;html=1;sketch=1;curveFitting=1;jiggle=2;strokeColor=#0000CC;" vertex="1" parent="1">
          <mxGeometry x="180" y="308" width="120" height="60" as="geometry" />
        </mxCell>
        <mxCell id="PTT7HxY-eehZ_G498u7Y-14" style="edgeStyle=none;rounded=1;orthogonalLoop=1;jettySize=auto;html=1;exitX=0.5;exitY=0;exitDx=0;exitDy=0;endArrow=none;endFill=0;sketch=1;curveFitting=1;jiggle=2;entryX=0.676;entryY=0.99;entryDx=0;entryDy=0;entryPerimeter=0;" edge="1" parent="1" source="PTT7HxY-eehZ_G498u7Y-4" target="PTT7HxY-eehZ_G498u7Y-1">
          <mxGeometry relative="1" as="geometry" />
        </mxCell>
        <mxCell id="PTT7HxY-eehZ_G498u7Y-4" value="Ecosystem and Community" style="rounded=1;whiteSpace=wrap;html=1;sketch=1;curveFitting=1;jiggle=2;strokeColor=#0000CC;" vertex="1" parent="1">
          <mxGeometry x="491.08" y="420" width="120" height="60" as="geometry" />
        </mxCell>
        <mxCell id="PTT7HxY-eehZ_G498u7Y-5" value="High Availability" style="rounded=1;whiteSpace=wrap;html=1;sketch=1;curveFitting=1;jiggle=2;strokeColor=#0000CC;" vertex="1" parent="1">
          <mxGeometry x="380.04" y="150" width="120" height="60" as="geometry" />
        </mxCell>
        <mxCell id="PTT7HxY-eehZ_G498u7Y-12" style="edgeStyle=none;rounded=1;orthogonalLoop=1;jettySize=auto;html=1;exitX=0;exitY=0.5;exitDx=0;exitDy=0;entryX=0.891;entryY=0.204;entryDx=0;entryDy=0;entryPerimeter=0;endArrow=none;endFill=0;sketch=1;curveFitting=1;jiggle=2;" edge="1" parent="1" source="PTT7HxY-eehZ_G498u7Y-6" target="PTT7HxY-eehZ_G498u7Y-1">
          <mxGeometry relative="1" as="geometry">
            <Array as="points">
              <mxPoint x="510" y="250" />
            </Array>
          </mxGeometry>
        </mxCell>
        <mxCell id="PTT7HxY-eehZ_G498u7Y-6" value="Automatic&lt;br&gt;Scaling" style="rounded=1;whiteSpace=wrap;html=1;sketch=1;curveFitting=1;jiggle=2;fillColor=none;strokeColor=#0000CC;" vertex="1" parent="1">
          <mxGeometry x="540" y="160" width="120" height="60" as="geometry" />
        </mxCell>
        <mxCell id="PTT7HxY-eehZ_G498u7Y-13" style="edgeStyle=none;rounded=1;orthogonalLoop=1;jettySize=auto;html=1;exitX=0;exitY=0.5;exitDx=0;exitDy=0;entryX=0.97;entryY=0.653;entryDx=0;entryDy=0;entryPerimeter=0;endArrow=none;endFill=0;sketch=1;curveFitting=1;jiggle=2;" edge="1" parent="1" source="PTT7HxY-eehZ_G498u7Y-7" target="PTT7HxY-eehZ_G498u7Y-1">
          <mxGeometry relative="1" as="geometry">
            <Array as="points">
              <mxPoint x="530" y="330" />
            </Array>
          </mxGeometry>
        </mxCell>
        <mxCell id="PTT7HxY-eehZ_G498u7Y-7" value="Hybrid or Multi-Cloud Deployments" style="rounded=1;whiteSpace=wrap;html=1;sketch=1;curveFitting=1;jiggle=2;strokeColor=#0000CC;" vertex="1" parent="1">
          <mxGeometry x="560" y="270" width="120" height="60" as="geometry" />
        </mxCell>
        <mxCell id="PTT7HxY-eehZ_G498u7Y-15" style="edgeStyle=none;rounded=1;orthogonalLoop=1;jettySize=auto;html=1;exitX=0.5;exitY=0;exitDx=0;exitDy=0;entryX=0.304;entryY=0.918;entryDx=0;entryDy=0;entryPerimeter=0;endArrow=none;endFill=0;sketch=1;curveFitting=1;jiggle=2;" edge="1" parent="1" source="PTT7HxY-eehZ_G498u7Y-8" target="PTT7HxY-eehZ_G498u7Y-1">
          <mxGeometry relative="1" as="geometry" />
        </mxCell>
        <mxCell id="PTT7HxY-eehZ_G498u7Y-8" value="DevOps Practices" style="rounded=1;whiteSpace=wrap;html=1;sketch=1;curveFitting=1;jiggle=2;strokeColor=#0000CC;" vertex="1" parent="1">
          <mxGeometry x="294" y="430" width="120" height="60" as="geometry" />
        </mxCell>
        <mxCell id="PTT7HxY-eehZ_G498u7Y-1" value="" style="image;sketch=0;aspect=fixed;html=1;points=[];align=center;fontSize=12;image=img/lib/mscae/Kubernetes.svg;" vertex="1" parent="1">
          <mxGeometry x="389" y="270" width="102.08" height="98" as="geometry" />
        </mxCell>
      </root>
    </mxGraphModel>
  </diagram>
</mxfile>
